<svg xmlns="http://www.w3.org/2000/svg" xmlns:xlink="http://www.w3.org/1999/xlink" width="420" height="595" viewBox="0 0 420 595"><defs><filter id="a" x="62" y="18" width="70" height="87" filterUnits="userSpaceOnUse"><feOffset dx="-7" input="SourceAlpha"/><feGaussianBlur result="b"/><feFlood flood-color="#686868"/><feComposite operator="in" in2="b"/><feComposite in="SourceGraphic"/></filter><clipPath id="d"><rect width="420" height="595"/></clipPath></defs><g id="c" clip-path="url(#d)"><rect width="420" height="595" fill="#a1eafb"/><ellipse cx="160" cy="68" rx="160" ry="68" transform="translate(38 12)" fill="#b9faff"/><ellipse cx="164" cy="108" rx="164" ry="108" transform="translate(151 29)" fill="#84e8ff"/><ellipse cx="240.5" cy="103" rx="240.5" ry="103" transform="translate(-166 49)" fill="#68cfe7"/><ellipse cx="309" cy="146" rx="309" ry="146" transform="matrix(0.996, -0.087, 0.087, 0.996, -94.549, 136.487)" fill="#35cfff"/><ellipse cx="181.5" cy="143.5" rx="181.5" ry="143.5" transform="translate(168 165)" fill="#50dafa"/><ellipse cx="240" cy="126.5" rx="240" ry="126.5" transform="matrix(0.996, -0.087, 0.087, 0.996, -69.112, 249.399)" fill="#99f8ff"/><ellipse cx="142.5" cy="100.5" rx="142.5" ry="100.5" transform="translate(219 262)" fill="#a1eafb"/><ellipse cx="90" cy="38" rx="90" ry="38" transform="translate(357 337)" fill="#7de132"/><rect width="420" height="227" transform="translate(0 369)" fill="#0155f5"/><ellipse cx="125.5" cy="32" rx="125.5" ry="32" transform="translate(189 392)" fill="#016dd9"/><ellipse cx="60" cy="13.5" rx="60" ry="13.5" transform="translate(287 397)" fill="#309cfe"/><path d="M411.1,378.133c.352,1.517,12.552,5.117,3.752,14.317s-34.32-5-51.12-3.6-41.68,11-24.28-6,24.28-12,24.28-12l18-2.6,15.32,2.6S410.746,376.617,411.1,378.133Z" transform="translate(-13 1)" fill="#003bd4"/><ellipse cx="9.5" cy="3" rx="9.5" ry="3" transform="translate(314.754 384.398) rotate(5)" fill="#02298e"/><ellipse cx="52" cy="12" rx="52" ry="12" transform="translate(312 385)" fill="#309cfe"/><ellipse cx="6" cy="2.5" rx="6" ry="2.5" transform="matrix(0.985, 0.174, -0.174, 0.985, 390.015, 376.826)" fill="#02298e"/><ellipse cx="23.5" cy="8" rx="23.5" ry="8" transform="translate(264 381)" fill="#0048d1"/><path d="M279.488,393.067a12.922,12.922,0,0,0-1.588,12.267c2.667,7.067,20.933,13.333,20.933,13.333L282.3,439.333l-36-4.267-10.267-34.8,7.467-7.2Z" fill="#00b3eb"/><path d="M252.456,402.268s18.886-3.454,15.525,5.272-2.241,5.817,10.53,12.119,1.12,6.06,4.481,12.6-2.465,13.331-2.465,13.331l-26.662-10.422L239.75,410.448Z" transform="translate(-1.6 -4.194)" fill="#009ece"/><path d="M348.517,409.425s-9.038,5.233-13.557,21.231,10.8,12.548,36.9,0,29.624-15.685,53.473-9.1,32.636-12.134,32.636-12.134l-44.436-10.452L391.195,392.7l-23.1,6.274Z" transform="translate(-27.174 -2)" fill="#0155f5"/><path d="M285.235,439.942s-16.462,30.467-42.022,10.313-12.78,56.143,19.448,43.187,70.634-46.109,100.5-24.776,80-36.406,80-36.406H382.685L359.9,420.744l-33.007-3.81L295.429,427.6" transform="translate(-8.229 -2)" fill="#02298e"/><path d="M283,474.8s69.267-52.667,122.6-24.4,35.2,35.2,11.733,21.333-46.4-15.467-72-11.733-66.667,28.267-66.667,28.267H263.2L283,474.8" fill="#07caff"/><ellipse cx="42.5" cy="12" rx="42.5" ry="12" transform="matrix(0.996, -0.087, 0.087, 0.996, 370.152, 489.578)" fill="#309cfe" opacity="0.95"/><path d="M266.2,323.8l-13,27.2,4,33.6L238,419l7.2,31.2H135.8V323.8" transform="translate(9 -12)" fill="#636363"/><path d="M262.048,339.4l4.355,33.439L246.66,407.374l5.952,22.876s-75.342-48.519-54.583-78.243S268,327.382,268,327.382" transform="translate(0 -0.177)" fill="#6e6e6e"/><path d="M230,358.2l-11.8,29.615,4,22-4,23.692,4,12.692H139.8v-88Z" transform="translate(0 -4.8)" fill="#636363"/><path d="M226.25,361.3s-.8-5.6-14.2-2.8-9.6,10.9-24.2,13.5-32.8,9.6-16.8,15.6,17.4,11.3,10.2,17.5-13.6,7.5-4.6,13.7,12.8,9.2,14.2,12.8a4.01,4.01,0,0,1-1.8,5.2h33.6l-3.8-7.8,3.8-21.4-3.8-25.2Z" fill="#6e6e6e"/><path d="M214.6,364.15s-12.978-11.7-20.989-1.1-20.348,10-18.746,25,21.31,11.2,18.746,18.6-19.707-5.4-14.74,7.6,17.144,10.8,13.459,14.8,1.282,5.8,1.282,5.8l16.823-3.8-1.282-2,3.2-21.4-3.2-25.6Z" transform="translate(10.177 2.392)" fill="#8a8a8a"/><path d="M272.5,441.4v16.283l-7.015,13.027,7.015,19.54-48.7-5.7V441.4Z" transform="translate(5 -6)" fill="#686868"/><path d="M264,484.05c-1.8-.8-21.6-2.2-13.6-8.6s.6-5.4,4.4-13.2-2-16,6.6-11.8,7.4-5.4,11.2-3.8,2.4,6,2.4,6l-7.6,8v13.6Z" fill="#767676"/><path d="M272.38,444.909s-7.587,2.541-8.225,7.141-10.7-.2-11.979,7.2,10.7,7,7.028,13.4,2.236,9.4,2.236,9.4l10.941,3-5.351-19.4,5.351-14.8Z" transform="translate(5.12)" fill="#8a8a8a"/><path d="M272.605,448.153s-5.8,4.5-6.532,9.5-3.376-1.8-6.312,5.4,4.991,1.2,3.816,10,7.926,0,5.871,4.4,3.156,6.6,3.156,6.6l-4.917-18.4,4.917-14Z" transform="translate(4.895)" fill="#bfbfbf"/><path d="M174,402.15l-6.6,14,1.4,16.2-6.2,7.6H136.4v-37.8Z" transform="translate(2 -1)" fill="#4b4b4b"/><ellipse cx="9.5" cy="8" rx="9.5" ry="8" transform="translate(354.67 478.572) rotate(30)" fill="#d8ffe2" opacity="0.93"/><path d="M162.392,430.417c-4.9,1.883-13.616-6.316-7.965-8.517s3.767-4.4,3.767-4.4-4.238-3.4,0-8S167.3,428.533,162.392,430.417Z" transform="translate(1.214)" fill="#595959"/><path d="M171.03,405.022s-1.385-8.122-10.39-2.522,2.078,6.2-6.061,8.4,7.273,3.4,4.5,7.2,1.559,18.6,1.559,18.6h4.329l1.732-20.6Z" transform="translate(2.92)" fill="#727272"/><path d="M147.882,207.2c-25.735,5.147-46.123-8.876-68.516,0S-6.2,212.782-6.2,212.782s15.689-15.924,28.763-14.051,9.676,2.879,9.676,2.879,2.5-43.438,12.986-36.133,9.152,17.933,9.152,17.933,1.307-85.845,32.685-79.288S113.21,183.41,113.21,183.41,127.828,130.6,141.2,153.873s2.34,31.924,12.032,31.924,16.711-7.757,26.07,4.177,11.029-31.327,23.73-12.829,20.054,13.128,32.754,12.829a63.169,63.169,0,0,1,23.73,4.475s2.005,1.193-35.762,7.161" transform="translate(103 -48.365)" fill="rgba(220,241,238,0.9)"/><path d="M126.05,164.8h17.7s29.45-1.333,37.983-5.6,22.35-3.333,34.617-1.2a210.079,210.079,0,0,0,27.2,2.4s46.367-5.5,64.5-5.5,20.35-5.833,20.35-5.833-11.733,1.6-17.6,0-8.8-15.8-13.333-10.667S286.8,150.667,270.8,144.8s-9.067,8.533-29.867-6.4S234,152.267,210,144.8s-4.267-46.933-28.267-65.6S170,146.4,156.667,138.4,138,159.2,138,159.2" fill="rgba(199,212,206,0.72)"/><path d="M-37,178.065l39.348-11.4s-2.349-11,16.444-18.34,14.095,18.34,14.095,18.34,12.333-41.4,58.141-60.262,0,48.733,9.984,56.069-19.967-6.812,14.095-27.773,19.967,23.057,19.967,23.057S166.2,74.441,197.912,73.393s13.507,61.31,13.507,61.31-14.682,18.864,20.555-11,32.3,42.969,32.3,42.969-1.762,5.764,11.158,4.192S295.4,186.58,295.4,186.58s-79.283-4.192-166.494-8.515" transform="translate(146.4 58.62)" fill="#ebf8ee"/><path d="M173.812,168.145c-15.5,23.6-9.685,28.908-21.308,24.188s-9.04-12.389-34.867,0-2.424-25.026-19.425-32.289S69.671,207.069,53.528,197.63,29.2,209.342,29.2,209.342s118.13-2.164,164.412-.772,125.046,4.418,125.046,4.418-16.995-13.576-33.137-8.856-4.52-7.08-17.434-35.988-44.552,35.988-44.552,35.988-.882-108.121-31.154-66.149" transform="matrix(1, 0.017, -0.017, 1, 120.862, 26.533)" fill="rgba(173,207,196,0.47)"/><path d="M225.5,291.15s5.3,1.7,17.7-5.7,9-.4,22.2,0,4.8-22,15.8-32.2,19.4,32.2,19.4,32.2-.65-50.6,29.55-72,17.9,62.3,17.9,62.3.5-3.7,11.5-15.5,23.2-16.4,27.6,0-7.2,46.8,15,25.2,13.6,16.6,19.75,17.7,23.85,8.5,24.65,8.3-9.8,4.6-46.1-3.3-174.95-17-174.95-17" transform="translate(-39 7)" fill="#f0f9f2"/><path d="M352.4,313.25c15,5.8,43.2,6.4,43.2,6.4s-20.6-2.8-24.6-13.8-12,5.2-24,3.6-11.6-1.6-16-8.2.9-28-14.1-13.8-21.9,7.4-19.9-16.8-6.1-45.4-20.4-19.4-10.7,46.6-21.5,47.4-4.5-18-9.2-22.4-10.5,10.4-13.3,18.4-12.5,5.4-17.7,1.4-6.444,4.2-6.444,4.2" fill="#dce4de"/><path d="M-28.6,212.4s65-14.2,119.8-11.8,61.95-1.8,61.95-1.8,4.85-.2-31.55-3,16.8-10.8-36.4-45.2-45.6,23.2-45.6,23.2-10-10.4-18.8,3.2-7.6,8.4-14-10.4-21.2-4-21.2-4" fill="rgba(235,248,238,0.89)"/><path d="M-12.8,209s52.4-8,68.4-8.4,58-6,58-6-46.4,6.4-47.2-22-24.8-2.4-24,12.8-7.6-3.6-18.8,2.4-12,20-18.4,9.2a83.3,83.3,0,0,1-8.8-21.2Z" transform="translate(-3 1)" fill="rgba(206,229,218,0.89)"/><path d="M211.362,372.567,208.5,382.85l2.864,24.6-2.864,21.4,1.146,3s-21.482-9.6-15.467-18,5.729-6.2,7.3-13-15.324-.4-17.9-5.8,11.887-9.6,15.9-14.2-5.585-12,0-13.6S211.362,372.567,211.362,372.567Z" transform="translate(11.138)" fill="#bfbfbf"/><path d="M78.2,291C54,291,.4,316.6.4,316.6L-.4,595.8H420V499s-148.2-6.4-166.6-24-.6-22.4,18.4-30.4-4.6-16-25.6-14.4-37.133,2.267-61.8,8.8-50.267-30.8-22.533-33.467,13.333-8.533,0-13.333,40.533-46.4,64-36.8,4.267-11.733-17.067-21.867-8.533-16.8,52.267-16.933S225.333,297.933,199.2,291s-121,0-121,0" transform="translate(0 -1)" fill="#7de132"/><path d="M133.38,448.153s-18.2-40.445,0-33.165,30.2,31.114,57.273,21.469,101.433-11.2,88.365,2.178-36.093,10.579-32.048,26.447S288.353,485.929,326,491.218s97.7,7.156,97.7,7.156v32.048H127.18" fill="#63d50d"/><ellipse cx="46.5" cy="9" rx="46.5" ry="9" transform="translate(123 295)" fill="#75db33"/><path d="M157.837,301.47s95.955,55.342,66.57,46.374-113.051,50.3-113.051,50.3l-24.9-85.39Z" transform="translate(0 3.614)" fill="#86d540"/><path d="M89,0l89,322H0Z" transform="translate(98 164) rotate(-90)" fill="rgba(253,255,199,0.6)"/><path d="M89,0l89,322H0Z" transform="translate(100 -14) rotate(90)" fill="rgba(253,255,199,0.6)"/><text transform="translate(210 100)" font-size="77" font-family="SegoeUI, Segoe UI"><tspan x="0" y="0">Maják</tspan><tspan x="0" y="1"></tspan><tspan font-family="FuturaT-MediRo1, Futura T Ro1"><tspan x="0" y="2"></tspan></tspan></text><path d="M87.245,121.4H117.2l13.778,225.926H73.553" transform="translate(-4.775 -10.4)" fill="#cbe3ff"/><path d="M12.292,390.907s18.359-6.447,15.967-17.051S-.2,361-.2,361v29.907" transform="translate(-126.599 44.363) rotate(-45)" fill="#5dcf03"/><path d="M127.133,348.126,151.8,330.6,134.118,133.4,113.4,122.2" transform="translate(-1 -11.2)" fill="#e5fdff"/><path d="M151.8,122.2l-20.65,11.5L113.4,330.5l24.667,17.521" transform="translate(-69 -11.1)" fill="#84caff"/><path d="M123.139,263.55c-12.3,0-48.78-.006-48.78-.006l-25.112,9.748,4.089-45.035,23.827-11.013,43.091-.04,23.98,11.068s2.75,33.646,4.043,45.035" transform="translate(-1.133 4.756)" fill="rgba(255,0,0,0.6)"/><path d="M131.665,265.12c-.195.052-3.276-37.976-3.276-37.976l-21.547-9.9H73.417L51.989,226.98l-3.54,37.894L71.1,254.883h37.952" transform="translate(7.536 -75.244)" fill="rgba(255,0,0,0.6)"/><path d="M95.7,362.5s76.7,40.355,44.7,83.745S-1.467,465.075-1.467,465.075s-19.467-80.232-3.467-91.694S95.7,362.5,95.7,362.5Z" fill="#75db33"/><path d="M0,528.029V425.662s146.6-4.971,182.78,28.781,32.732,73.587,32.732,73.587Z" transform="translate(0 1.971)" fill="#5ecc2a"/><path d="M26.571,519.392H182.777s18.194-35.8-43.406-62.2-112.8,62.2-112.8,62.2" transform="translate(88.429 10.608)" fill="#43dd4f"/><path d="M253.15,530s-51.8-58.35,41.9-36.758S405.858,530,405.858,530Z" fill="#60dd02"/><line x2="421" transform="translate(-0.5 530)" fill="none" stroke="#49821e" stroke-width="3"/><line y2="65" transform="translate(140 530)" fill="none" stroke="#49821e" stroke-width="3"/><line y2="65" transform="translate(283 530)" fill="none" stroke="#49821e" stroke-width="3"/><path d="M140.05,112.85l-16.9-13.778-11.236,16.089,20.724,11.156" transform="translate(0.483 -4.072)" fill="#c4f8fd"/><path d="M111.917,112.85l16.9-13.778,11.236,16.089-20.724,11.156" transform="translate(-57.167 -4.072)" fill="#57b7ff"/><ellipse cx="4" cy="3" rx="4" ry="3" transform="translate(93 15)" fill="#c32323"/><g transform="matrix(1, 0, 0, 1, 0, 0)" filter="url(#a)"><ellipse cx="31.5" cy="43.5" rx="31.5" ry="43.5" transform="translate(69 18)" fill="#6d6d6d"/></g><path d="M71.489,106.532c-.593-.21,10.844,16.1,10.844,16.1h30.044l11.022-16.1" transform="translate(0.223 -11.53)" fill="#a8d0ff"/><path d="M75.461,48.1,59.3,63.934V92.78L75.461,78.7Z" transform="translate(0.699 -0.104)" fill="#a0a0a0" stroke="#bf3d54" stroke-width="6"/><path d="M59.3,48.1l16.16,15.83V92.78L59.3,78.7Z" transform="translate(59.699 -0.104)" fill="#a0a0a0" stroke="#db535e" stroke-width="6"/><g transform="translate(79 41)" fill="#a0a0a0" stroke="#ce5066" stroke-width="8"><rect width="37" height="43" stroke="none"/><rect x="4" y="4" width="29" height="35" fill="none"/></g><path d="M140.444,105.533l-16.8-15.467v15.048l16.925,13.806" transform="translate(0 -10.067)" fill="#e5fdff"/><path d="M123.644,105.533l16.963-15.378v14.9l-16.9,13.8" transform="translate(-68.894 -10.067)" fill="#84caff"/><path d="M312,440.6s-4.267,2.333,5.333,7.133S329.6,428,361.6,431.733s24.533,18.133,53.867,16,41.067-7.133,41.067-7.133-36.267,4.067-48,0-26.667-14.733-53.867-15.8S312,440.6,312,440.6Z" transform="translate(-28 -13)" fill="#d8ffe2"/><ellipse cx="14" cy="8" rx="14" ry="8" transform="translate(319 456)" fill="#d8ffe2" opacity="0.71"/><ellipse cx="9.5" cy="6" rx="9.5" ry="6" transform="translate(316.297 412.642) rotate(20)" fill="#07caff" opacity="0.72"/><path d="M355.912,473.176c11.233,6.582,20.5,11.491,21.978-2.789s.371,3.682-9.634,2.789-18.9-12.16-12.344,0" transform="translate(35.042 -5.117)" fill="#d8ffe2" opacity="0.85"/><path d="M262.145,339.164C225.782,338.291,248.036,354,248.036,354s-28.945,4.364-15.855,16.727-13.818,15.709-5.382,31.855A41.49,41.49,0,0,0,250.655,422.8l-3.345-15.709,19.2-34.327" fill="#8a8a8a"/><path d="M263.455,348.109c-15.855,6.836,8.291,10.909-8.873,14.836s0,14.982,0,14.982-25.891-.291-17.309,12.8,11.491,13.382,11.491,13.382l17.891-31.127Z" fill="#bfbfbf"/><path d="M387.2,369s-.8-21.4,9.6-11,2.4-8.8,12-7.2,10.4-8.8,10.4-8.8v27Z" transform="translate(1)" fill="#69c81e"/><path d="M411.031,369s-2.117-7.4,3.483-6.714S420,356.914,420,356.914V369" fill="#459d00"/><path d="M253.15,394.25c-13.75,5.617-9.617,7.095-2.417,5.222s17.467-9.952,26.8-6.5S297.8,394.25,297.8,394.25s-11.467-.493-16.8-3.35-11.067-1.872-18.4,0S253.15,394.25,253.15,394.25Z" transform="translate(89 -22.108)" fill="#d8ffe2"/><path d="M265.633,364.733c23.733-13.333,8.667,2,10.667,0s16.667-13.067,18.133-9.067-5.2,9.067-5.2,9.067,13.6-8.267,9.2,0-10.267,6.533-10.267,6.533,18.767,5.567,0,12.8-28.5,0-28.5,0l6.8-11.833" transform="translate(0 1)" fill="#dcfaff"/><path d="M259.4,385.1c21.867-13.582,11.467,2.667,11.467,2.667s17.067-13.333,17.067-2.667S251.8,398.967,251.8,398.967Z" fill="#b4ebff"/><text transform="translate(336 121)" font-size="21" font-family="SegoeUI, Segoe UI"><tspan x="0" y="0">Únor</tspan></text><text transform="translate(336 138)" font-size="21" font-family="SegoeUI, Segoe UI"><tspan x="0" y="0">2022</tspan></text><ellipse cx="4" cy="3.5" rx="4" ry="3.5" transform="translate(302.044 365.579) rotate(-20)" fill="rgba(220,250,255,0.69)"/><ellipse cx="23.5" cy="9" rx="23.5" ry="9" transform="matrix(0.985, 0.174, -0.174, 0.985, 386.435, 395.601)" fill="rgba(190,255,255,0.78)"/><ellipse cx="4.5" cy="2.5" rx="4.5" ry="2.5" transform="matrix(0.985, 0.174, -0.174, 0.985, 362.533, 444.909)" fill="#fff" opacity="0.8"/><ellipse cx="3" cy="2.5" rx="3" ry="2.5" transform="matrix(0.985, 0.174, -0.174, 0.985, 371.487, 450.43)" fill="#fff" opacity="0.88"/><text transform="translate(23 579)" fill="#49821e" font-size="40" font-family="SegoeUI, Segoe UI"><tspan x="0" y="0">Ahoj</tspan></text><text transform="translate(174 575)" fill="#49821e" font-size="31" font-family="SegoeUI, Segoe UI"><tspan x="0" y="0">jak se</tspan></text><text transform="translate(309 579)" fill="#49821e" font-size="38" font-family="SegoeUI, Segoe UI"><tspan x="0" y="0">máš?</tspan></text><path d="M353.295,402.462c19.531-4.562,7.506-2.162,26.1-6.154s32.754,3.815,49.108,6.154,23.569,0,23.569,0-20.683-1.446-36.075-6.154-27.417-7.508-39.442-5.508-28.259,5.9-31.746,11.662S353.295,402.462,353.295,402.462Z" transform="translate(-18.171)" fill="#07caff"/><ellipse cx="5.5" cy="1.5" rx="5.5" ry="1.5" transform="matrix(0.94, -0.342, 0.342, 0.94, 330.831, 399.545)" fill="#fff"/><path d="M169.842,409s-11.121-6.1-9.532,1.9,8.9,2.8,3.972,8.2,2.065,7.6,0,9.8,1.589,7,1.589,7l3.018-4.4-1.43-16Z" transform="translate(2.508)" fill="#a7a7a7"/><rect width="52" height="14.9" transform="translate(71.7 80.1)" fill="#cbe3ff"/><path d="M133.38,135.547l-20.28-3.87L60.572,148.348l1.568-16.085L82.684,121.24l29.744-.032,20.64,11.079Z" transform="translate(0 -10.108)" fill="rgba(108,108,108,0.3)"/><path d="M82.79,121.08,54.94,212.768l7.217-80.559" transform="translate(0 -9.98)" fill="rgba(122,122,122,0.44)"/><path d="M68.36,166.06s57.84-9.64,62.4-4.44,3.02,17.84-18.02,20.08-22.32,10.96-42.08,6.32-8.06-19.64-2.3-21.96" transform="translate(0 -12)" fill="rgba(250,255,119,0.11)"/><path d="M57.32,262.9c-1.36,2.748-13.12,25.731,9.28,19.109s22.88-8.876,29.2-8.264,48.4,18.059,46.4-1.308S103.72,235.011,85.56,242.8A80.154,80.154,0,0,0,57.32,262.9Z" transform="translate(3 -15.946)" fill="rgba(255,255,255,0.09)"/><g transform="translate(83 231)" fill="#a0a0a0" stroke="#707070" stroke-width="1"><circle cx="15" cy="15" r="15" stroke="none"/><circle cx="15" cy="15" r="14.5" fill="none"/></g><line x1="28" transform="translate(84 246)" fill="none" stroke="#707070" stroke-width="3"/><line y1="28" transform="translate(98 232)" fill="none" stroke="#707070" stroke-width="3"/><circle cx="3" cy="3" r="3" transform="translate(95 243)" fill="#707070"/><g transform="translate(85 149)" fill="#a0a0a0" stroke="#707070" stroke-width="1"><circle cx="12.5" cy="12.5" r="12.5" stroke="none"/><circle cx="12.5" cy="12.5" r="12" fill="none"/></g><line y2="24" transform="translate(97.5 149)" fill="none" stroke="#707070" stroke-width="2.5"/><line y2="24" transform="translate(109.5 161.5) rotate(90)" fill="none" stroke="#707070" stroke-width="2.5"/><circle cx="2.5" cy="2.5" r="2.5" transform="translate(95 159)" fill="#707070"/><path d="M87.1,337H97.7a12.709,12.709,0,0,0-1.8-5.4c-1.55-2.25-6.331,2.391-6.331,2.391Z" transform="translate(-2)" fill="rgba(49,207,175,0.35)"/><path d="M104.929,336.76a27.365,27.365,0,0,0-1.328-5.57c-1.048-2.958-4.1,2.211-4.1,2.611s4.641,11.831.241.231S91.5,332.75,91.5,332.75s-1.3-6.522-4.407-9.06-5.061,13.07-5.061,13.07" transform="translate(-12)" fill="#75cf31"/><path d="M112.4,308.5s-26.3-24.1-1.9-24.5,35.8-11.8,35.8-11.8l3.2,33.2s-26.2,14.2-37.1,3.1" transform="translate(1 9)" fill="rgba(195,195,195,0.15)"/><ellipse cx="55" cy="6" rx="55" ry="6" transform="translate(16 373)" fill="#55c000"/><ellipse cx="72.5" cy="5.5" rx="72.5" ry="5.5" transform="translate(12 367)" fill="#55c000"/><ellipse cx="81.5" cy="13.5" rx="81.5" ry="13.5" transform="translate(5 336)" fill="#75cf31"/><ellipse cx="65.5" cy="14" rx="65.5" ry="14" transform="translate(-7 352)" fill="#75cf31"/><path d="M49.93,323.924s1.376-10.819,4.043-4.073,1.014,3.56,1.014,3.56S57.2,313.1,59.628,316.9s-.3,9.728-.3,9.728,4.469-3.5,4.606-1.414-1.718,7.068-1.718,7.068" fill="rgba(55,201,137,0.58)"/><ellipse cx="93.5" cy="31" rx="93.5" ry="31" transform="translate(-67 416)" fill="#7de132"/><ellipse cx="52.5" cy="17" rx="52.5" ry="17" transform="translate(-30 458)" fill="#7de132"/></g></svg>